<svg version="1.2" xmlns="http://www.w3.org/2000/svg" viewBox="0 0 505 505" width="505" height="505">
	<title>blank-svg</title>
	<style>
		.s0 { fill: #000000 } 
	</style>
	<g id="Layer">
		<g id="Layer">
			<path id="Layer" fill-rule="evenodd" class="s0" d="m11.7 303.2h128.2c5.8-19.7 11.5-37.3 16-51.8-14.8-19.3-39.6-29.6-74.1-29.6-1.1 0-2.3-0.7-3-1.6-0.8-0.9-1.1-2.2-0.8-3.4 1.3-6.8 3.1-13.7 5.1-20.5-4.8-3-6.9-9.3-4.5-14.7 1.8-4.3 6.1-7.1 10.8-7.1 0.5 0 1 0.1 1.5 0.2 33.9-79.8 111.2-131.2 198-131.2 118.6 0 215.1 96.5 215.1 215.1 0 62.5-27.1 121.7-74.3 162.7-1 0.8-2.4 1.1-3.7 0.8q-4.1-1.1-8.2-2-2.3-0.5-4.6-0.9-1.6-0.3-3.2-0.5-3.1-0.5-6.2-0.8-0.5-0.1-1-0.1-14.7-1.6-29.9 0-0.4 0.1-0.8 0.1c-6.9 0.8-13.8 2-20.7 3.7q-1.8 0.5-3.6 0.9-2.6 0.7-5.2 1.5-2.7 0.8-5.4 1.7c-1.3 0.5-2.6 0.9-4 1.4q-4.5 1.6-9.2 3.6c-1 0.4-2 0.9-3.1 1.3q-3.6 1.6-7.2 3.3-1.5 0.7-3.1 1.5c-3.3 1.6-6.6 3.3-9.9 5.2-11.1 6.1-22 10.7-32.7 13.8-10.7 3.1-21.1 4.7-31.1 4.7-11.5 0-22.3-2.2-32.1-6.4q-0.4-0.2-0.9-0.3-2.9-1.3-5.6-2.8c-0.5-0.3-0.9-0.5-1.4-0.8q-2.7-1.5-5.2-3.3-0.3-0.1-0.5-0.3-0.7-0.6-1.5-1.2-2.3-1.7-4.4-3.5-0.5-0.5-1-1c-1.5-1.4-2.9-2.9-4.3-4.4-0.3-0.3-0.6-0.6-0.9-0.9-0.2-0.2-0.4-0.5-0.6-0.8q-1.7-2-3.2-4.1c-0.5-0.7-0.9-1.5-1.4-2.2q-0.9-1.5-1.8-3-0.6-1.1-1.2-2.2-1.2-2.4-2.3-4.8-0.4-1-0.7-1.9-0.8-2.2-1.5-4.5-0.2-0.6-0.4-1.3-0.8-2.9-1.3-5.8-0.1-0.7-0.3-1.5c-0.3-1.9-0.5-3.8-0.6-5.8q-0.1-0.2-0.1-0.4-0.1-3.1 0-6.3 0-0.7 0.1-1.4c0.1-2.1 0.3-3.4 0.6-5.6 0.5-3.1 1.1-6 1.8-9.9h-24.1c-0.7 0-1.4 4.4-2 6.4-16.5 50.1-54.8 68.4-76.5 68.4h-51.9c-6.5 0-11.7-7.1-11.7-13.6v-122c0-6.5 5.2-10.1 11.7-10.1zm160.8 0.7q-0.5-10.6-2.4-19.8c-2.6 8.5-5.4 17.5-8.3 26.5zm-2.5 46.6c0.8-7.9 1.5-12.3 1.9-17.5l-21.1 13.6-1.1 3.9zm-146.4 74.8h40c14.2 0 41.1-15.8 53.7-51.2h-93.7zm0-74.8h101.3c2.4-7.9 5-15.8 7.6-23.7h-108.9z"/>
		</g>
	</g>
</svg>